<svg width="3840" height="2160" viewBox="0 0 3840 2160" fill="none" xmlns="http://www.w3.org/2000/svg">
<path d="M3741 0H99C44.3238 0 0 44.3238 0 99V2061C0 2115.68 44.3239 2160 99.0001 2160H3741C3795.68 2160 3840 2115.68 3840 2061V99C3840 44.3238 3795.68 0 3741 0Z" fill="#262A36"/>
<path d="M722.25 1515.75C635.583 1515.75 557.25 1497 487.25 1459.5C417.25 1421.17 362.25 1367.42 322.25 1298.25C282.25 1229.08 262.25 1149.92 262.25 1060.75C262.25 971.583 282.25 892.417 322.25 823.25C362.25 754.083 417.25 700.333 487.25 662C557.25 623.667 635.583 604.5 722.25 604.5C808.917 604.5 887.25 623.667 957.25 662C1027.25 700.333 1082.25 754.083 1122.25 823.25C1162.25 892.417 1182.25 971.583 1182.25 1060.75C1182.25 1149.92 1162.25 1229.08 1122.25 1298.25C1082.25 1367.42 1027.25 1421.17 957.25 1459.5C887.25 1497 808.917 1515.75 722.25 1515.75ZM722.25 1400.75C783.917 1400.75 839.75 1387 889.75 1359.5C940.583 1331.17 980.583 1291.58 1009.75 1240.75C1038.92 1189.08 1053.5 1129.08 1053.5 1060.75C1053.5 993.25 1038.92 934.083 1009.75 883.25C981.417 831.583 942.25 792 892.25 764.5C842.25 736.167 786.417 722 724.75 722C662.25 722 605.583 735.75 554.75 763.25C504.75 790.75 464.75 830.333 434.75 882C405.583 933.667 391 993.25 391 1060.75C391 1129.08 405.583 1189.08 434.75 1240.75C463.917 1291.58 503.5 1331.17 553.5 1359.5C604.333 1387 660.583 1400.75 722.25 1400.75ZM1583.71 1515.75C1502.88 1515.75 1441.63 1494.08 1399.96 1450.75C1359.13 1407.42 1338.71 1349.5 1338.71 1277V897H1464.96V1272C1464.96 1367.83 1512.88 1415.75 1608.71 1415.75C1692.88 1415.75 1758.71 1377.83 1806.21 1302V897H1932.46V1497H1809.96V1412C1781.63 1447.83 1747.88 1474.08 1708.71 1490.75C1670.38 1507.42 1628.71 1515.75 1583.71 1515.75ZM2350.73 1515.75C2289.89 1515.75 2242.81 1498.25 2209.48 1463.25C2176.98 1428.25 2160.73 1378.67 2160.73 1314.5V994.5H2069.48V897H2160.73V717H2288.23V897H2435.73V994.5H2288.23V1305.75C2288.23 1345.75 2295.73 1374.08 2310.73 1390.75C2326.56 1407.42 2354.89 1415.75 2395.73 1415.75C2419.89 1415.75 2444.06 1410.33 2468.23 1399.5V1499.5C2436.56 1510.33 2397.39 1515.75 2350.73 1515.75ZM2612.01 573.25H2738.26V1497H2612.01V573.25ZM2926.31 897H3048.81V1004.5C3073.81 967.833 3108.81 940.75 3153.81 923.25C3199.65 905.75 3252.56 897 3312.56 897V995.75C3248.4 995.75 3193.4 1006.17 3147.56 1027C3101.73 1047.83 3070.06 1080.75 3052.56 1125.75V1497H2926.31V897Z" fill="#ECECEC"/>
<circle cx="545.5" cy="1075.37" r="57.5" fill="#ECECEC"/>
<circle cx="803.581" cy="899.5" r="57.5" fill="#ECECEC"/>
<circle cx="666.398" cy="981.555" r="57.5" fill="#ECECEC"/>
<circle cx="689.203" cy="1259.97" r="57.5" fill="#ECECEC"/>
<circle cx="779.767" cy="1034.21" r="57.5" fill="#ECECEC"/>
<circle cx="907.902" cy="1072.68" r="57.5" fill="#ECECEC"/>
<circle cx="690.846" cy="1125.62" r="57.5" fill="#ECECEC"/>
<circle cx="3268.5" cy="1439.5" r="57.5" fill="#925FF0"/>
</svg>
