<svg width="1920" height="1080" viewBox="0 0 1920 1080" fill="none" xmlns="http://www.w3.org/2000/svg">
<g clip-path="url(#clip0_678_10588)">
<rect width="1920" height="1080" transform="translate(1920 1080) rotate(-180)" fill="#202020"/>
<g filter="url(#filter0_f_678_10588)">
<path d="M953.259 684.361C812.205 725.858 907.413 842.033 951.772 920.004C985.792 939.847 999.502 1032.25 1013.49 1068.18C1043.29 1144.76 1070.51 1218.21 1145.1 1268.41C1192.1 1300.04 1280.87 1340.53 1342.14 1335.63C1408.81 1330.3 1425.34 1287.96 1445.42 1236.53L1446.24 1234.44C1483.9 1138.02 1516.13 972.402 1662.61 982.89C1735.97 988.142 1769.43 1103.85 1848.5 1068.91C1899.27 1046.47 1947.43 981.45 1968.21 933.376C2019.34 815.141 1932.33 588.49 1778.24 608.463C1702.13 618.328 1624.39 624.511 1550.71 597.982C1488.01 575.41 1433.32 410.048 1369 388.22C1316.49 370.401 1462.87 552.08 1469 652.72C1470.55 678.169 1380.93 774.222 1342.14 792.22C1327.13 799.186 1101 749.22 1134.69 678.578C1077.64 675.354 1009.01 667.959 953.259 684.361Z" fill="url(#paint0_linear_678_10588)"/>
</g>
<g filter="url(#filter1_f_678_10588)">
<path d="M1126.17 801.167C1077.84 1008.02 795.59 1118.91 495.746 1048.85C195.903 978.794 81.1752 318.065 129.506 111.213C177.837 -95.6389 305.915 491.869 605.759 561.927C905.602 631.986 1174.5 594.316 1126.17 801.167Z" fill="#8349FF"/>
</g>
<g filter="url(#filter2_f_678_10588)">
<path d="M1533.47 205.643C1622.27 305.099 1627.34 381.01 1671.65 497.595C1757.19 722.643 1694.19 870.435 1795.85 1091.25C2003.29 1541.81 2361.99 123.531 1851.78 -135.725C1531.05 -298.703 592.537 -337.774 875.466 -135.725C988.457 -55.0342 1096.6 -63.5537 1224.21 2.12256C1355.9 69.9023 1442.86 104.149 1533.47 205.643Z" fill="url(#paint1_linear_678_10588)"/>
</g>
<g filter="url(#filter3_f_678_10588)">
<path d="M734.992 414.581C876.864 403.035 969.681 341.643 1060.3 199.412C1243.89 -88.7223 178.607 -174.833 325.711 140.031C418.463 338.56 553.777 429.33 734.992 414.581Z" fill="#0011E0"/>
</g>
<g filter="url(#filter4_f_678_10588)">
<path d="M730.986 224.729C848.895 216.972 925.849 173.449 1000.7 72.1859C1152.34 -132.953 266.391 -198.119 389.774 27.2492C467.569 169.348 580.379 234.638 730.986 224.729Z" fill="#202020"/>
</g>
</g>
<defs>
<filter id="filter0_f_678_10588" x="629" y="137" width="1603.89" height="1449.04" filterUnits="userSpaceOnUse" color-interpolation-filters="sRGB">
<feFlood flood-opacity="0" result="BackgroundImageFix"/>
<feBlend mode="normal" in="SourceGraphic" in2="BackgroundImageFix" result="shape"/>
<feGaussianBlur stdDeviation="125" result="effect1_foregroundBlur_678_10588"/>
</filter>
<filter id="filter1_f_678_10588" x="-201.167" y="-252.683" width="1653" height="1642.54" filterUnits="userSpaceOnUse" color-interpolation-filters="sRGB">
<feFlood flood-opacity="0" result="BackgroundImageFix"/>
<feBlend mode="normal" in="SourceGraphic" in2="BackgroundImageFix" result="shape"/>
<feGaussianBlur stdDeviation="160" result="effect1_foregroundBlur_678_10588"/>
</filter>
<filter id="filter2_f_678_10588" x="573" y="-523" width="1790" height="1952" filterUnits="userSpaceOnUse" color-interpolation-filters="sRGB">
<feFlood flood-opacity="0" result="BackgroundImageFix"/>
<feBlend mode="normal" in="SourceGraphic" in2="BackgroundImageFix" result="shape"/>
<feGaussianBlur stdDeviation="125" result="effect1_foregroundBlur_678_10588"/>
</filter>
<filter id="filter3_f_678_10588" x="-8.2832" y="-379.652" width="1409.93" height="1115.78" filterUnits="userSpaceOnUse" color-interpolation-filters="sRGB">
<feFlood flood-opacity="0" result="BackgroundImageFix"/>
<feBlend mode="normal" in="SourceGraphic" in2="BackgroundImageFix" result="shape"/>
<feGaussianBlur stdDeviation="160" result="effect1_foregroundBlur_678_10588"/>
</filter>
<filter id="filter4_f_678_10588" x="57.9446" y="-434.325" width="1280.28" height="980.033" filterUnits="userSpaceOnUse" color-interpolation-filters="sRGB">
<feFlood flood-opacity="0" result="BackgroundImageFix"/>
<feBlend mode="normal" in="SourceGraphic" in2="BackgroundImageFix" result="shape"/>
<feGaussianBlur stdDeviation="160" result="effect1_foregroundBlur_678_10588"/>
</filter>
<linearGradient id="paint0_linear_678_10588" x1="1430.95" y1="478.22" x2="1430.95" y2="1336.04" gradientUnits="userSpaceOnUse">
<stop stop-color="#7D5ABC"/>
<stop offset="1" stop-color="#7E1674"/>
</linearGradient>
<linearGradient id="paint1_linear_678_10588" x1="1708.67" y1="678.358" x2="1497.72" y2="-95.0547" gradientUnits="userSpaceOnUse">
<stop stop-color="#38038E"/>
<stop offset="1" stop-color="#6F4A6F"/>
</linearGradient>
<clipPath id="clip0_678_10588">
<rect width="1920" height="1080" fill="white" transform="translate(1920 1080) rotate(-180)"/>
</clipPath>
</defs>
</svg>
