<svg width="181" height="64" viewBox="0 0 181 64" fill="none" xmlns="http://www.w3.org/2000/svg">
<path d="M30.1731 54.441C26.0991 54.441 22.3821 53.496 19.0221 51.606C15.6621 49.674 12.9951 47.007 11.0211 43.605C9.08906 40.161 8.12306 36.297 8.12306 32.013C8.12306 27.729 9.08906 23.886 11.0211 20.484C12.9951 17.04 15.6621 14.373 19.0221 12.483C22.3821 10.551 26.0991 9.585 30.1731 9.585C34.2891 9.585 38.0271 10.551 41.3871 12.483C44.7471 14.373 47.3931 17.019 49.3251 20.421C51.2571 23.823 52.2231 27.687 52.2231 32.013C52.2231 36.339 51.2571 40.203 49.3251 43.605C47.3931 47.007 44.7471 49.674 41.3871 51.606C38.0271 53.496 34.2891 54.441 30.1731 54.441ZM30.1731 49.464C33.2391 49.464 35.9901 48.75 38.4261 47.322C40.9041 45.894 42.8361 43.857 44.2221 41.211C45.6501 38.565 46.3641 35.499 46.3641 32.013C46.3641 28.485 45.6501 25.419 44.2221 22.815C42.8361 20.169 40.9251 18.132 38.4891 16.704C36.0531 15.276 33.2811 14.562 30.1731 14.562C27.0651 14.562 24.2931 15.276 21.8571 16.704C19.4211 18.132 17.4891 20.169 16.0611 22.815C14.6751 25.419 13.9821 28.485 13.9821 32.013C13.9821 35.499 14.6751 38.565 16.0611 41.211C17.4891 43.857 19.4211 45.894 21.8571 47.322C24.3351 48.75 27.1071 49.464 30.1731 49.464ZM91.6694 19.476V54H85.9364V48.897C84.8444 50.661 83.3114 52.047 81.3374 53.055C79.4054 54.021 77.2634 54.504 74.9114 54.504C72.2234 54.504 69.8084 53.958 67.6664 52.866C65.5244 51.732 63.8234 50.052 62.5634 47.826C61.3454 45.6 60.7364 42.891 60.7364 39.699V19.476H66.4064V38.943C66.4064 42.345 67.2674 44.97 68.9894 46.818C70.7114 48.624 73.0634 49.527 76.0454 49.527C79.1114 49.527 81.5264 48.582 83.2904 46.692C85.0544 44.802 85.9364 42.051 85.9364 38.439V19.476H91.6694ZM109.602 24.201V44.55C109.602 46.23 109.959 47.427 110.673 48.141C111.387 48.813 112.626 49.149 114.39 49.149H118.611V54H113.445C110.253 54 107.859 53.265 106.263 51.795C104.667 50.325 103.869 47.91 103.869 44.55V24.201H99.3963V19.476H103.869V10.782H109.602V19.476H118.611V24.201H109.602ZM132.551 7.38V54H126.818V7.38H132.551ZM149.314 25.083C150.322 23.109 151.75 21.576 153.598 20.484C155.488 19.392 157.777 18.846 160.465 18.846V24.768H158.953C152.527 24.768 149.314 28.254 149.314 35.226V54H143.581V19.476H149.314V25.083Z" fill="#EEEEEE"/>
<ellipse cx="167.605" cy="50.5807" rx="3.09824" ry="3.09677" fill="#925FF0"/>
<ellipse cx="19.5372" cy="31.4237" rx="3.09825" ry="3.09678" fill="#EEEEEE"/>
<ellipse cx="33.982" cy="21.9249" rx="3.09825" ry="3.09677" fill="#EEEEEE"/>
<ellipse cx="26.3043" cy="26.3565" rx="3.09825" ry="3.09677" fill="#EEEEEE"/>
<ellipse cx="27.5807" cy="41.3932" rx="3.09825" ry="3.09678" fill="#EEEEEE"/>
<ellipse cx="32.6495" cy="29.2003" rx="3.09824" ry="3.09678" fill="#EEEEEE"/>
<ellipse cx="39.8209" cy="31.2782" rx="3.09825" ry="3.09677" fill="#EEEEEE"/>
<ellipse cx="27.6725" cy="34.1371" rx="3.09825" ry="3.09677" fill="#EEEEEE"/>
</svg>
