<svg xmlns="http://www.w3.org/2000/svg" xmlns:xlink="http://www.w3.org/1999/xlink" version="1.1" width="640" height="480" viewBox="0 0 640 480" xml:space="preserve">
<desc>Created with Fabric.js 3.6.6</desc>
<defs>
</defs>
<g transform="matrix(0.41 0 0 0.41 1344.38 399.61)"  >
<circle style="stroke: none; stroke-width: 1; stroke-dasharray: none; stroke-linecap: butt; stroke-dashoffset: 0; stroke-linejoin: miter; stroke-miterlimit: 4; fill: rgb(146,95,240); fill-rule: nonzero; opacity: 1;"  cx="0" cy="0" r="57.5" />
</g>
<g transform="matrix(1.09 0 0 1.09 318.64 239.98)"  >
<g style=""   >
		<g transform="matrix(0.41 0 0 0.41 0 0)"  >
<path style="stroke: none; stroke-width: 1; stroke-dasharray: none; stroke-linecap: butt; stroke-dashoffset: 0; stroke-linejoin: miter; stroke-miterlimit: 4; fill: rgb(146,95,240); fill-rule: nonzero; opacity: 1;"  transform=" translate(-598.25, -615.13)" d="M 598.25 1070.75 C 511.583 1070.75 433.25 1052 363.25 1014.5 C 293.25 976.167 238.25 922.417 198.25 853.25 C 158.25 784.083 138.25 704.917 138.25 615.75 C 138.25 526.583 158.25 447.417 198.25 378.25 C 238.25 309.083 293.25 255.333 363.25 217 C 433.25 178.667 511.583 159.5 598.25 159.5 C 684.917 159.5 763.25 178.667 833.25 217 C 903.25 255.333 958.25 309.083 998.25 378.25 C 1038.25 447.417 1058.25 526.583 1058.25 615.75 C 1058.25 704.917 1038.25 784.083 998.25 853.25 C 958.25 922.417 903.25 976.167 833.25 1014.5 C 763.25 1052 684.917 1070.75 598.25 1070.75 Z M 598.25 955.75 C 659.917 955.75 715.75 942 765.75 914.5 C 816.583 886.167 856.583 846.583 885.75 795.75 C 914.917 744.083 929.5 684.083 929.5 615.75 C 929.5 548.25 914.917 489.083 885.75 438.25 C 857.417 386.583 818.25 347 768.25 319.5 C 718.25 291.167 662.417 277 600.75 277 C 538.25 277 481.583 290.75 430.75 318.25 C 380.75 345.75 340.75 385.333 310.75 437 C 281.583 488.667 267 548.25 267 615.75 C 267 684.083 281.583 744.083 310.75 795.75 C 339.917 846.583 379.5 886.167 429.5 914.5 C 480.333 942 536.583 955.75 598.25 955.75 Z" stroke-linecap="round" />
</g>
		<g transform="matrix(0.41 0 0 0.41 -72.47 6.25)"  >
<circle style="stroke: none; stroke-width: 1; stroke-dasharray: none; stroke-linecap: butt; stroke-dashoffset: 0; stroke-linejoin: miter; stroke-miterlimit: 4; fill: rgb(238,238,238); fill-rule: nonzero; opacity: 1;"  cx="0" cy="0" r="57.5" />
</g>
		<g transform="matrix(0.41 0 0 0.41 33.35 -65.86)"  >
<circle style="stroke: none; stroke-width: 1; stroke-dasharray: none; stroke-linecap: butt; stroke-dashoffset: 0; stroke-linejoin: miter; stroke-miterlimit: 4; fill: rgb(238,238,238); fill-rule: nonzero; opacity: 1;"  cx="0" cy="0" r="57.5" />
</g>
		<g transform="matrix(0.41 0 0 0.41 -22.9 -32.22)"  >
<circle style="stroke: none; stroke-width: 1; stroke-dasharray: none; stroke-linecap: butt; stroke-dashoffset: 0; stroke-linejoin: miter; stroke-miterlimit: 4; fill: rgb(238,238,238); fill-rule: nonzero; opacity: 1;"  cx="0" cy="0" r="57.5" />
</g>
		<g transform="matrix(0.41 0 0 0.41 -13.55 81.94)"  >
<circle style="stroke: none; stroke-width: 1; stroke-dasharray: none; stroke-linecap: butt; stroke-dashoffset: 0; stroke-linejoin: miter; stroke-miterlimit: 4; fill: rgb(238,238,238); fill-rule: nonzero; opacity: 1;"  cx="0" cy="0" r="57.5" />
</g>
		<g transform="matrix(0.41 0 0 0.41 23.58 -10.63)"  >
<circle style="stroke: none; stroke-width: 1; stroke-dasharray: none; stroke-linecap: butt; stroke-dashoffset: 0; stroke-linejoin: miter; stroke-miterlimit: 4; fill: rgb(238,238,238); fill-rule: nonzero; opacity: 1;"  cx="0" cy="0" r="57.5" />
</g>
		<g transform="matrix(0.41 0 0 0.41 76.12 5.15)"  >
<circle style="stroke: none; stroke-width: 1; stroke-dasharray: none; stroke-linecap: butt; stroke-dashoffset: 0; stroke-linejoin: miter; stroke-miterlimit: 4; fill: rgb(238,238,238); fill-rule: nonzero; opacity: 1;"  cx="0" cy="0" r="57.5" />
</g>
		<g transform="matrix(0.41 0 0 0.41 -12.87 26.85)"  >
<circle style="stroke: none; stroke-width: 1; stroke-dasharray: none; stroke-linecap: butt; stroke-dashoffset: 0; stroke-linejoin: miter; stroke-miterlimit: 4; fill: rgb(238,238,238); fill-rule: nonzero; opacity: 1;"  cx="0" cy="0" r="57.5" />
</g>
</g>
</g>
</svg>